<svg width="512" height="512" viewBox="0 0 512 512" fill="none" xmlns="http://www.w3.org/2000/svg">
<path d="M154.515 117.332V426.199H121V345.554C121 331.483 132.397 320.076 146.455 320.076V316.76C132.397 316.76 121 305.353 121 291.283V94.613C121 89.8562 124.853 86 129.606 86L390.29 86V117.332L154.515 117.332Z" fill="#FFFEF4"/>
<path d="M219.057 426.199V178.81L390.29 178.81V147.478L194.147 147.478C189.395 147.478 185.542 151.334 185.542 156.091V291.283C185.542 305.353 196.939 316.76 210.997 316.76V320.076C196.939 320.076 185.542 331.483 185.542 345.554V426.199H219.057Z" fill="#FFFEF4"/>
<path d="M283.599 334.332H390.29V302.696H283.599V240.288H390.29V208.955H258.689C253.937 208.955 250.084 212.812 250.084 217.568V291.283C250.084 305.354 261.48 316.761 275.539 316.761V320.077C261.48 320.077 250.084 331.483 250.084 345.554V426.2H283.599V334.332Z" fill="#FFFEF4"/>
</svg>
